<svg width="193" height="30" viewBox="0 0 193 30" fill="none" xmlns="http://www.w3.org/2000/svg">
<path d="M13.24 29.4C10.7867 29.4 8.65333 29 6.84 28.2C5.02667 27.4 3.61333 26.2 2.6 24.6C1.58667 22.9733 1.02667 20.9467 0.92 18.52C0.893333 17.3733 0.88 16.2267 0.88 15.08C0.88 13.9333 0.893333 12.7733 0.92 11.6C1.02667 9.2 1.58667 7.18667 2.6 5.56C3.64 3.90667 5.06667 2.66667 6.88 1.84C8.69333 1.01333 10.8133 0.599998 13.24 0.599998C15.64 0.599998 17.7467 1.01333 19.56 1.84C21.4 2.66667 22.84 3.90667 23.88 5.56C24.92 7.18667 25.48 9.2 25.56 11.6C25.6133 12.7733 25.64 13.9333 25.64 15.08C25.64 16.2267 25.6133 17.3733 25.56 18.52C25.4533 20.9467 24.8933 22.9733 23.88 24.6C22.8667 26.2 21.4533 27.4 19.64 28.2C17.8267 29 15.6933 29.4 13.24 29.4ZM13.24 23.64C14.6533 23.64 15.8 23.2133 16.68 22.36C17.5867 21.5067 18.0667 20.1467 18.12 18.28C18.1733 17.1067 18.2 16 18.2 14.96C18.2 13.92 18.1733 12.84 18.12 11.72C18.0667 10.4667 17.8267 9.45333 17.4 8.68C17 7.88 16.44 7.29333 15.72 6.92C15 6.54666 14.1733 6.36 13.24 6.36C12.3333 6.36 11.52 6.54666 10.8 6.92C10.08 7.29333 9.50667 7.88 9.08 8.68C8.65333 9.45333 8.41333 10.4667 8.36 11.72C8.33333 12.84 8.32 13.92 8.32 14.96C8.32 16 8.33333 17.1067 8.36 18.28C8.44 20.1467 8.92 21.5067 9.8 22.36C10.68 23.2133 11.8267 23.64 13.24 23.64ZM31.2766 29C30.9832 29 30.7432 28.9067 30.5566 28.72C30.3699 28.5333 30.2766 28.2933 30.2766 28V2C30.2766 1.70667 30.3699 1.46667 30.5566 1.28C30.7432 1.09333 30.9832 0.999998 31.2766 0.999998H49.6366C49.9299 0.999998 50.1699 1.09333 50.3566 1.28C50.5699 1.46667 50.6766 1.70667 50.6766 2V6.04C50.6766 6.33333 50.5699 6.57333 50.3566 6.76C50.1699 6.94667 49.9299 7.04 49.6366 7.04H37.3166V12.92H48.8366C49.1299 12.92 49.3699 13.0267 49.5566 13.24C49.7699 13.4267 49.8766 13.6667 49.8766 13.96V17.96C49.8766 18.2267 49.7699 18.4667 49.5566 18.68C49.3699 18.8667 49.1299 18.96 48.8366 18.96H37.3166V28C37.3166 28.2933 37.2232 28.5333 37.0366 28.72C36.8499 28.9067 36.6099 29 36.3166 29H31.2766ZM66.2488 29.4C63.7154 29.4 61.5421 28.9867 59.7288 28.16C57.9421 27.3333 56.5421 26.12 55.5288 24.52C54.5421 22.92 53.9954 20.9333 53.8888 18.56C53.8621 17.4667 53.8488 16.2933 53.8488 15.04C53.8488 13.7867 53.8621 12.5867 53.8888 11.44C53.9954 9.12 54.5554 7.16 55.5688 5.56C56.5821 3.93333 57.9954 2.70667 59.8088 1.88C61.6221 1.02667 63.7688 0.599998 66.2488 0.599998C68.0088 0.599998 69.6354 0.826665 71.1288 1.28C72.6221 1.70667 73.9288 2.34666 75.0488 3.2C76.1688 4.02667 77.0354 5.04 77.6488 6.24C78.2888 7.41333 78.6221 8.74667 78.6488 10.24C78.6754 10.48 78.5954 10.68 78.4088 10.84C78.2488 11 78.0488 11.08 77.8088 11.08H72.4088C72.0621 11.08 71.7954 11.0133 71.6088 10.88C71.4221 10.72 71.2621 10.44 71.1288 10.04C70.7554 8.62667 70.1421 7.66667 69.2888 7.16C68.4621 6.62667 67.4354 6.36 66.2088 6.36C64.7421 6.36 63.5821 6.77333 62.7288 7.6C61.8754 8.4 61.4088 9.74667 61.3288 11.64C61.2488 13.8267 61.2488 16.0667 61.3288 18.36C61.4088 20.2533 61.8754 21.6133 62.7288 22.44C63.5821 23.24 64.7421 23.64 66.2088 23.64C67.4354 23.64 68.4754 23.3733 69.3288 22.84C70.1821 22.3067 70.7821 21.3467 71.1288 19.96C71.2354 19.56 71.3821 19.2933 71.5688 19.16C71.7821 19 72.0621 18.92 72.4088 18.92H77.8088C78.0488 18.92 78.2488 19 78.4088 19.16C78.5954 19.32 78.6754 19.52 78.6488 19.76C78.6221 21.2533 78.2888 22.6 77.6488 23.8C77.0354 24.9733 76.1688 25.9867 75.0488 26.84C73.9288 27.6667 72.6221 28.3067 71.1288 28.76C69.6354 29.1867 68.0088 29.4 66.2488 29.4ZM92.2547 29.4C90.0147 29.4 88.1214 29.04 86.5747 28.32C85.0547 27.6 83.8814 26.5733 83.0547 25.24C82.2547 23.88 81.8014 22.2667 81.6947 20.4C81.668 19.8667 81.6547 19.2667 81.6547 18.6C81.6547 17.9067 81.668 17.3067 81.6947 16.8C81.8014 14.9067 82.2814 13.2933 83.1347 11.96C83.988 10.6267 85.1747 9.6 86.6947 8.88C88.2414 8.16 90.0947 7.8 92.2547 7.8C94.4414 7.8 96.2947 8.16 97.8147 8.88C99.3614 9.6 100.561 10.6267 101.415 11.96C102.268 13.2933 102.748 14.9067 102.855 16.8C102.881 17.3067 102.895 17.9067 102.895 18.6C102.895 19.2667 102.881 19.8667 102.855 20.4C102.748 22.2667 102.281 23.88 101.455 25.24C100.655 26.5733 99.4814 27.6 97.9347 28.32C96.4147 29.04 94.5214 29.4 92.2547 29.4ZM92.2547 24.52C93.4547 24.52 94.3214 24.16 94.8547 23.44C95.4147 22.72 95.7347 21.64 95.8147 20.2C95.8414 19.8 95.8547 19.2667 95.8547 18.6C95.8547 17.9333 95.8414 17.4 95.8147 17C95.7347 15.5867 95.4147 14.52 94.8547 13.8C94.3214 13.0533 93.4547 12.68 92.2547 12.68C91.0814 12.68 90.2147 13.0533 89.6547 13.8C89.0947 14.52 88.788 15.5867 88.7347 17C88.708 17.4 88.6947 17.9333 88.6947 18.6C88.6947 19.2667 88.708 19.8 88.7347 20.2C88.788 21.64 89.0947 22.72 89.6547 23.44C90.2147 24.16 91.0814 24.52 92.2547 24.52ZM114.469 29.4C112.949 29.4 111.589 29.0533 110.389 28.36C109.215 27.6667 108.295 26.6533 107.629 25.32C106.962 23.96 106.629 22.3067 106.629 20.36V9.2C106.629 8.90667 106.722 8.66667 106.909 8.48C107.095 8.29333 107.335 8.2 107.629 8.2H112.629C112.922 8.2 113.162 8.29333 113.349 8.48C113.535 8.66667 113.629 8.90667 113.629 9.2V20.12C113.629 22.7333 114.802 24.04 117.149 24.04C118.242 24.04 119.109 23.7067 119.749 23.04C120.415 22.3467 120.749 21.3733 120.749 20.12V9.2C120.749 8.90667 120.842 8.66667 121.029 8.48C121.215 8.29333 121.455 8.2 121.749 8.2H126.749C127.042 8.2 127.282 8.29333 127.469 8.48C127.655 8.66667 127.749 8.90667 127.749 9.2V28C127.749 28.2933 127.655 28.5333 127.469 28.72C127.282 28.9067 127.042 29 126.749 29H122.109C121.842 29 121.602 28.9067 121.389 28.72C121.202 28.5333 121.109 28.2933 121.109 28V26.48C120.415 27.44 119.509 28.1733 118.389 28.68C117.295 29.16 115.989 29.4 114.469 29.4ZM133.454 29C133.16 29 132.92 28.9067 132.734 28.72C132.547 28.5333 132.454 28.2933 132.454 28V9.2C132.454 8.93333 132.547 8.70667 132.734 8.52C132.92 8.30667 133.16 8.2 133.454 8.2H138.054C138.347 8.2 138.587 8.30667 138.774 8.52C138.96 8.70667 139.054 8.93333 139.054 9.2V10.8C139.774 9.97333 140.627 9.33333 141.614 8.88C142.627 8.42667 143.76 8.2 145.014 8.2H146.774C147.04 8.2 147.267 8.29333 147.454 8.48C147.667 8.66667 147.774 8.90667 147.774 9.2V13.32C147.774 13.5867 147.667 13.8267 147.454 14.04C147.267 14.2267 147.04 14.32 146.774 14.32H142.894C141.8 14.32 140.947 14.6267 140.334 15.24C139.747 15.8267 139.454 16.6667 139.454 17.76V28C139.454 28.2933 139.347 28.5333 139.134 28.72C138.947 28.9067 138.707 29 138.414 29H133.454ZM159.178 29.4C157.444 29.4 155.964 29.2133 154.738 28.84C153.538 28.44 152.551 27.96 151.778 27.4C151.031 26.84 150.471 26.2667 150.098 25.68C149.724 25.0667 149.524 24.5467 149.498 24.12C149.471 23.8267 149.564 23.5867 149.778 23.4C149.991 23.1867 150.218 23.08 150.458 23.08H155.018C155.098 23.08 155.164 23.0933 155.218 23.12C155.271 23.1467 155.351 23.2 155.458 23.28C155.804 23.4667 156.151 23.7067 156.498 24C156.844 24.2667 157.244 24.5067 157.698 24.72C158.151 24.9333 158.698 25.04 159.338 25.04C160.084 25.04 160.711 24.8933 161.218 24.6C161.724 24.3067 161.978 23.8667 161.978 23.28C161.978 22.8533 161.858 22.5067 161.618 22.24C161.378 21.9467 160.884 21.6667 160.138 21.4C159.418 21.1333 158.324 20.8667 156.858 20.6C155.471 20.28 154.258 19.8667 153.218 19.36C152.178 18.8267 151.378 18.1467 150.818 17.32C150.258 16.4667 149.978 15.44 149.978 14.24C149.978 13.1733 150.324 12.1467 151.018 11.16C151.711 10.1733 152.724 9.37333 154.058 8.76C155.391 8.12 157.031 7.8 158.978 7.8C160.524 7.8 161.858 7.98667 162.978 8.36C164.124 8.70667 165.084 9.16 165.858 9.72C166.658 10.28 167.258 10.8533 167.658 11.44C168.058 12.0267 168.271 12.56 168.298 13.04C168.324 13.3067 168.244 13.5467 168.058 13.76C167.871 13.9467 167.658 14.04 167.418 14.04H163.258C163.151 14.04 163.044 14.0267 162.938 14C162.831 13.9467 162.738 13.8933 162.658 13.84C162.338 13.68 162.018 13.4667 161.698 13.2C161.378 12.9333 161.004 12.6933 160.578 12.48C160.151 12.2667 159.618 12.16 158.978 12.16C158.258 12.16 157.698 12.32 157.298 12.64C156.898 12.96 156.698 13.3733 156.698 13.88C156.698 14.2267 156.804 14.5467 157.018 14.84C157.258 15.1333 157.724 15.4 158.418 15.64C159.138 15.88 160.244 16.1467 161.738 16.44C163.578 16.7333 165.044 17.2133 166.138 17.88C167.231 18.52 168.004 19.28 168.458 20.16C168.911 21.0133 169.138 21.92 169.138 22.88C169.138 24.16 168.751 25.2933 167.978 26.28C167.231 27.2667 166.111 28.04 164.618 28.6C163.124 29.1333 161.311 29.4 159.178 29.4ZM182.327 29.4C179.181 29.4 176.674 28.5467 174.807 26.84C172.941 25.1333 171.967 22.6 171.887 19.24C171.887 19.0533 171.887 18.8133 171.887 18.52C171.887 18.2267 171.887 18 171.887 17.84C171.967 15.7333 172.434 13.9333 173.287 12.44C174.167 10.92 175.367 9.77333 176.887 9C178.434 8.2 180.234 7.8 182.287 7.8C184.634 7.8 186.567 8.26667 188.087 9.2C189.634 10.1333 190.794 11.4 191.567 13C192.341 14.6 192.727 16.4267 192.727 18.48V19.44C192.727 19.7333 192.621 19.9733 192.407 20.16C192.221 20.3467 191.994 20.44 191.727 20.44H178.927C178.927 20.4667 178.927 20.5067 178.927 20.56C178.927 20.6133 178.927 20.6667 178.927 20.72C178.954 21.4933 179.087 22.2 179.327 22.84C179.567 23.48 179.941 23.9867 180.447 24.36C180.954 24.7333 181.567 24.92 182.287 24.92C182.821 24.92 183.261 24.84 183.607 24.68C183.981 24.4933 184.287 24.2933 184.527 24.08C184.767 23.84 184.954 23.64 185.087 23.48C185.327 23.2133 185.514 23.0533 185.647 23C185.807 22.92 186.047 22.88 186.367 22.88H191.327C191.594 22.88 191.807 22.96 191.967 23.12C192.154 23.2533 192.234 23.4533 192.207 23.72C192.181 24.1733 191.954 24.72 191.527 25.36C191.101 26 190.474 26.64 189.647 27.28C188.847 27.8933 187.834 28.4 186.607 28.8C185.381 29.2 183.954 29.4 182.327 29.4ZM178.927 16.48H185.687V16.4C185.687 15.5467 185.554 14.8 185.287 14.16C185.047 13.52 184.661 13.0267 184.127 12.68C183.621 12.3333 183.007 12.16 182.287 12.16C181.567 12.16 180.954 12.3333 180.447 12.68C179.967 13.0267 179.594 13.52 179.327 14.16C179.061 14.8 178.927 15.5467 178.927 16.4V16.48Z" fill="#0C356A"/>
</svg>
